# xmcd
#
# Track frame offsets: 
#        183
#        12768
#        26568
#        40160
#        54893
#        70298
#        84643
#        99790
#        116200
#        136505
#        148295
#        160915
#        174450
#        186995
#        201560
#        216150
#        233845
#
# Disc length: 3272 seconds
#
# Revision: 3
# Processed by: cddbd v1.5.1PL0 Copyright (c) Steve Scherf et al.
# Submitted via: ExactAudioCopy v0.95a5
#
DISCID=ec0cc611
DTITLE=Percy Sledge - 16 Greatest hits [Percy Sledge]
DYEAR=1900
DGENRE=Soul
TTITLE0=When a man loves a woman
TTITLE1=Take time to know her
TTITLE2=My special prayer
TTITLE3=Warm and tender love
TTITLE4=Walkin in the sun
TTITLE5=Hard to be friends
TTITLE6=Out of left field
TTITLE7=Make it good and make it last
TTITLE8=The good love
TTITLE9=Tell it like it is
TTITLE10=It tears me up
TTITLE11=I believe in you
TTITLE12=Begind closed doors
TTITLE13=I'll be your everything
TTITLE14=If this is the last time
TTITLE15=Blue water
TTITLE16=(Sittin' on) The dock of the bay
EXTD=
EXTT0=
EXTT1=
EXTT2=
EXTT3=
EXTT4=
EXTT5=
EXTT6=
EXTT7=
EXTT8=
EXTT9=
EXTT10=
EXTT11=
EXTT12=
EXTT13=
EXTT14=
EXTT15=
EXTT16=
PLAYORDER=
